<mxfile host="Electron" modified="2024-01-21T13:11:23.402Z" agent="Mozilla/5.0 (Windows NT 10.0; Win64; x64) AppleWebKit/537.36 (KHTML, like Gecko) draw.io/21.1.2 Chrome/106.0.5249.199 Electron/21.4.3 Safari/537.36" etag="RjEQBTfUhVXSa2Hdr6JC" version="21.1.2" type="device">
  <diagram name="Page-1" id="LHGnUWIwYkF4xhttNfTB">
    <mxGraphModel dx="999" dy="659" grid="1" gridSize="10" guides="1" tooltips="1" connect="1" arrows="1" fold="1" page="1" pageScale="1" pageWidth="827" pageHeight="1169" math="0" shadow="0">
      <root>
        <mxCell id="0" />
        <mxCell id="1" parent="0" />
        <mxCell id="Oe71tEeRGmfdsAAmsfZn-1" value="1" style="rounded=0;whiteSpace=wrap;html=1;fillColor=#6a00ff;strokeColor=#3700CC;fontColor=#ffffff;" parent="1" vertex="1">
          <mxGeometry x="110" y="167.9310344827586" width="34.483" height="34.48275862068965" as="geometry" />
        </mxCell>
        <mxCell id="Oe71tEeRGmfdsAAmsfZn-2" value="2" style="rounded=0;whiteSpace=wrap;html=1;fillColor=#6a00ff;strokeColor=#3700CC;fontColor=#ffffff;" parent="1" vertex="1">
          <mxGeometry x="144.483" y="167.9310344827586" width="34.483" height="34.48275862068965" as="geometry" />
        </mxCell>
        <mxCell id="Oe71tEeRGmfdsAAmsfZn-3" value="3" style="rounded=0;whiteSpace=wrap;html=1;fillColor=#6a00ff;strokeColor=#3700CC;fontColor=#ffffff;" parent="1" vertex="1">
          <mxGeometry x="178.966" y="167.9310344827586" width="34.483" height="34.48275862068965" as="geometry" />
        </mxCell>
        <mxCell id="Oe71tEeRGmfdsAAmsfZn-4" value="4" style="rounded=0;whiteSpace=wrap;html=1;fillColor=#6a00ff;strokeColor=#3700CC;fontColor=#ffffff;" parent="1" vertex="1">
          <mxGeometry x="213.44899999999998" y="167.9310344827586" width="34.483" height="34.48275862068965" as="geometry" />
        </mxCell>
        <mxCell id="Oe71tEeRGmfdsAAmsfZn-5" value="5" style="rounded=0;whiteSpace=wrap;html=1;fillColor=#6a00ff;strokeColor=#3700CC;fontColor=#ffffff;" parent="1" vertex="1">
          <mxGeometry x="247.932" y="167.9310344827586" width="34.483" height="34.48275862068965" as="geometry" />
        </mxCell>
        <mxCell id="Oe71tEeRGmfdsAAmsfZn-7" value="6" style="rounded=0;whiteSpace=wrap;html=1;fillColor=#6a00ff;strokeColor=#3700CC;fontColor=#ffffff;" parent="1" vertex="1">
          <mxGeometry x="282.41499999999996" y="167.9310344827586" width="34.483" height="34.48275862068965" as="geometry" />
        </mxCell>
        <mxCell id="Oe71tEeRGmfdsAAmsfZn-8" value="7" style="rounded=0;whiteSpace=wrap;html=1;fillColor=#6a00ff;strokeColor=#3700CC;fontColor=#ffffff;" parent="1" vertex="1">
          <mxGeometry x="316.89799999999997" y="167.9310344827586" width="34.483" height="34.48275862068965" as="geometry" />
        </mxCell>
        <mxCell id="Oe71tEeRGmfdsAAmsfZn-9" value="8" style="rounded=0;whiteSpace=wrap;html=1;fillColor=#6a00ff;strokeColor=#3700CC;fontColor=#ffffff;" parent="1" vertex="1">
          <mxGeometry x="351.381" y="167.9310344827586" width="34.483" height="34.48275862068965" as="geometry" />
        </mxCell>
        <mxCell id="Oe71tEeRGmfdsAAmsfZn-10" value="9" style="rounded=0;whiteSpace=wrap;html=1;fillColor=#6a00ff;strokeColor=#3700CC;fontColor=#ffffff;" parent="1" vertex="1">
          <mxGeometry x="385.864" y="167.9310344827586" width="34.483" height="34.48275862068965" as="geometry" />
        </mxCell>
        <mxCell id="Oe71tEeRGmfdsAAmsfZn-11" value="10" style="rounded=0;whiteSpace=wrap;html=1;fillColor=#6a00ff;strokeColor=#3700CC;fontColor=#ffffff;" parent="1" vertex="1">
          <mxGeometry x="420.347" y="167.9310344827586" width="34.483" height="34.48275862068965" as="geometry" />
        </mxCell>
        <mxCell id="Oe71tEeRGmfdsAAmsfZn-12" value="11" style="rounded=0;whiteSpace=wrap;html=1;fillColor=#6a00ff;strokeColor=#3700CC;fontColor=#ffffff;" parent="1" vertex="1">
          <mxGeometry x="454.83" y="167.9310344827586" width="34.483" height="34.48275862068965" as="geometry" />
        </mxCell>
        <mxCell id="Oe71tEeRGmfdsAAmsfZn-13" value="12" style="rounded=0;whiteSpace=wrap;html=1;fillColor=#6a00ff;strokeColor=#3700CC;fontColor=#ffffff;" parent="1" vertex="1">
          <mxGeometry x="489.313" y="167.9310344827586" width="34.483" height="34.48275862068965" as="geometry" />
        </mxCell>
        <mxCell id="Oe71tEeRGmfdsAAmsfZn-14" value="13" style="rounded=0;whiteSpace=wrap;html=1;fillColor=#6a00ff;strokeColor=#3700CC;fontColor=#ffffff;" parent="1" vertex="1">
          <mxGeometry x="523.7959999999999" y="167.9310344827586" width="34.483" height="34.48275862068965" as="geometry" />
        </mxCell>
        <mxCell id="Oe71tEeRGmfdsAAmsfZn-15" value="14" style="rounded=0;whiteSpace=wrap;html=1;fillColor=#6a00ff;strokeColor=#3700CC;fontColor=#ffffff;" parent="1" vertex="1">
          <mxGeometry x="558.279" y="167.9310344827586" width="34.483" height="34.48275862068965" as="geometry" />
        </mxCell>
        <mxCell id="Oe71tEeRGmfdsAAmsfZn-16" value="15" style="rounded=0;whiteSpace=wrap;html=1;fillColor=#6a00ff;strokeColor=#3700CC;fontColor=#ffffff;" parent="1" vertex="1">
          <mxGeometry x="592.762" y="167.9310344827586" width="34.483" height="34.48275862068965" as="geometry" />
        </mxCell>
        <mxCell id="Oe71tEeRGmfdsAAmsfZn-17" value="16" style="rounded=0;whiteSpace=wrap;html=1;fillColor=#6a00ff;strokeColor=#3700CC;fontColor=#ffffff;" parent="1" vertex="1">
          <mxGeometry x="627.245" y="167.9310344827586" width="34.483" height="34.48275862068965" as="geometry" />
        </mxCell>
        <mxCell id="Oe71tEeRGmfdsAAmsfZn-18" value="17" style="rounded=0;whiteSpace=wrap;html=1;fillColor=#6a00ff;strokeColor=#3700CC;fontColor=#ffffff;" parent="1" vertex="1">
          <mxGeometry x="661.728" y="167.9310344827586" width="34.483" height="34.48275862068965" as="geometry" />
        </mxCell>
        <mxCell id="Oe71tEeRGmfdsAAmsfZn-19" value="18" style="rounded=0;whiteSpace=wrap;html=1;fillColor=#6a00ff;strokeColor=#3700CC;fontColor=#ffffff;" parent="1" vertex="1">
          <mxGeometry x="696.2109999999999" y="167.9310344827586" width="34.483" height="34.48275862068965" as="geometry" />
        </mxCell>
        <mxCell id="Oe71tEeRGmfdsAAmsfZn-20" value="19" style="rounded=0;whiteSpace=wrap;html=1;fillColor=#6a00ff;strokeColor=#3700CC;fontColor=#ffffff;" parent="1" vertex="1">
          <mxGeometry x="730.694" y="167.9310344827586" width="34.483" height="34.48275862068965" as="geometry" />
        </mxCell>
        <mxCell id="Oe71tEeRGmfdsAAmsfZn-21" value="20 :(" style="rounded=0;whiteSpace=wrap;html=1;fillColor=#6a00ff;strokeColor=#3700CC;fontColor=#ffffff;" parent="1" vertex="1">
          <mxGeometry x="765.1769999999999" y="167.9310344827586" width="34.483" height="34.48275862068965" as="geometry" />
        </mxCell>
        <mxCell id="Oe71tEeRGmfdsAAmsfZn-22" value="Full-time bezig geweest met herkansingen App development + Kernmodule 4 (networking)" style="rounded=0;whiteSpace=wrap;html=1;fontSize=8;dashed=1;strokeColor=#666666;" parent="1" vertex="1">
          <mxGeometry x="110" y="202.41379310344826" width="206.89799999999997" height="77.58620689655172" as="geometry" />
        </mxCell>
        <mxCell id="Oe71tEeRGmfdsAAmsfZn-23" value="Simple demo with units moving with NavMesh &amp;amp; Static buildings" style="rounded=0;whiteSpace=wrap;html=1;fontSize=8;" parent="1" vertex="1">
          <mxGeometry x="316.89799999999997" y="202.41379310344826" width="126.72502499999999" height="77.58620689655172" as="geometry" />
        </mxCell>
        <mxCell id="Oe71tEeRGmfdsAAmsfZn-24" value="Midterm" style="rounded=0;whiteSpace=wrap;html=1;horizontal=0;fillColor=#f0a30a;fontColor=#000000;strokeColor=#BD7000;" parent="1" vertex="1">
          <mxGeometry x="421.209075" y="30" width="34.483" height="137.9310344827586" as="geometry" />
        </mxCell>
        <mxCell id="Oe71tEeRGmfdsAAmsfZn-25" value="Showcase" style="rounded=0;whiteSpace=wrap;html=1;horizontal=0;fillColor=#f0a30a;fontColor=#000000;strokeColor=#BD7000;" parent="1" vertex="1">
          <mxGeometry x="696.2139999999999" y="30" width="34.483" height="137.9310344827586" as="geometry" />
        </mxCell>
        <mxCell id="Oe71tEeRGmfdsAAmsfZn-26" value="Endterm" style="rounded=0;whiteSpace=wrap;html=1;horizontal=0;fillColor=#f0a30a;fontColor=#000000;strokeColor=#BD7000;" parent="1" vertex="1">
          <mxGeometry x="730.6969999999999" y="30" width="34.483" height="137.9310344827586" as="geometry" />
        </mxCell>
        <mxCell id="Oe71tEeRGmfdsAAmsfZn-27" value="Behaviour system for each unit, units have UnitTasks &amp;amp; movement" style="rounded=0;whiteSpace=wrap;html=1;fontSize=8;" parent="1" vertex="1">
          <mxGeometry x="437.58849999999995" y="202.41379310344826" width="86.2075" height="77.58620689655172" as="geometry" />
        </mxCell>
        <mxCell id="Oe71tEeRGmfdsAAmsfZn-28" value="More complex behaviour system. More tasks + sequence tasks" style="rounded=0;whiteSpace=wrap;html=1;fontSize=8;" parent="1" vertex="1">
          <mxGeometry x="523.7959999999999" y="202.41379310344826" width="34.483" height="77.58620689655172" as="geometry" />
        </mxCell>
        <mxCell id="Oe71tEeRGmfdsAAmsfZn-30" value="RTS Action system, building unit spawns" style="rounded=0;whiteSpace=wrap;html=1;fontSize=8;" parent="1" vertex="1">
          <mxGeometry x="558.279" y="202.41379310344826" width="34.483" height="77.58620689655172" as="geometry" />
        </mxCell>
        <mxCell id="Oe71tEeRGmfdsAAmsfZn-31" value="Action Queue system" style="rounded=0;whiteSpace=wrap;html=1;fontSize=8;" parent="1" vertex="1">
          <mxGeometry x="592.762" y="202.41379310344826" width="34.483" height="77.58620689655172" as="geometry" />
        </mxCell>
        <mxCell id="Oe71tEeRGmfdsAAmsfZn-32" value="Primitive state based AI" style="rounded=0;whiteSpace=wrap;html=1;fontSize=8;" parent="1" vertex="1">
          <mxGeometry x="627.245" y="202.41379310344826" width="52.586574999999996" height="77.58620689655172" as="geometry" />
        </mxCell>
        <mxCell id="Oe71tEeRGmfdsAAmsfZn-33" value="Utility System based AI" style="rounded=0;whiteSpace=wrap;html=1;fontSize=8;" parent="1" vertex="1">
          <mxGeometry x="679.83" y="202.41" width="34.17" height="77.59" as="geometry" />
        </mxCell>
        <mxCell id="Oe71tEeRGmfdsAAmsfZn-34" value="Showcasing &amp;amp; powerpoint creation.&lt;br&gt;:)" style="rounded=0;whiteSpace=wrap;html=1;fontSize=8;" parent="1" vertex="1">
          <mxGeometry x="714" y="202.41" width="52" height="77.59" as="geometry" />
        </mxCell>
        <mxCell id="Oe71tEeRGmfdsAAmsfZn-36" value="Kleine playtest + user stories test" style="rounded=0;whiteSpace=wrap;html=1;fontSize=8;" parent="1" vertex="1">
          <mxGeometry x="489.313" y="90.34482758620689" width="34.483" height="77.58620689655172" as="geometry" />
        </mxCell>
        <mxCell id="Oe71tEeRGmfdsAAmsfZn-37" value="HKU Testdag" style="rounded=0;whiteSpace=wrap;html=1;fontSize=8;" parent="1" vertex="1">
          <mxGeometry x="592.76" y="90.34" width="37.24" height="77.59" as="geometry" />
        </mxCell>
        <mxCell id="Oe71tEeRGmfdsAAmsfZn-74" value="Projectweek" style="rounded=0;whiteSpace=wrap;html=1;fillColor=#6a00ff;strokeColor=#3700CC;fontColor=#ffffff;fontSize=8;" parent="1" vertex="1">
          <mxGeometry x="60" y="167.93" width="50" height="34.48" as="geometry" />
        </mxCell>
        <mxCell id="Oe71tEeRGmfdsAAmsfZn-77" value="" style="endArrow=classic;html=1;rounded=0;entryX=0;entryY=1;entryDx=0;entryDy=0;" parent="1" target="Oe71tEeRGmfdsAAmsfZn-23" edge="1">
          <mxGeometry width="50" height="50" relative="1" as="geometry">
            <mxPoint x="317" y="320" as="sourcePoint" />
            <mxPoint x="330" y="80" as="targetPoint" />
          </mxGeometry>
        </mxCell>
        <mxCell id="Oe71tEeRGmfdsAAmsfZn-79" value="Vanaf dit moment full-time bezig aan RTS" style="text;html=1;align=center;verticalAlign=middle;resizable=0;points=[];autosize=1;strokeColor=none;fillColor=none;fontSize=8;" parent="1" vertex="1">
          <mxGeometry x="232.93" y="320" width="170" height="20" as="geometry" />
        </mxCell>
        <mxCell id="Oe71tEeRGmfdsAAmsfZn-83" value="" style="endArrow=classic;html=1;rounded=0;entryX=0.5;entryY=0;entryDx=0;entryDy=0;" parent="1" target="Oe71tEeRGmfdsAAmsfZn-12" edge="1">
          <mxGeometry width="50" height="50" relative="1" as="geometry">
            <mxPoint x="472" y="90" as="sourcePoint" />
            <mxPoint x="520" y="30" as="targetPoint" />
          </mxGeometry>
        </mxCell>
        <mxCell id="Oe71tEeRGmfdsAAmsfZn-84" value="meeting &lt;br style=&quot;font-size: 6px;&quot;&gt;vincent" style="text;html=1;align=center;verticalAlign=middle;resizable=0;points=[];autosize=1;strokeColor=none;fillColor=none;fontSize=6;" parent="1" vertex="1">
          <mxGeometry x="452.07" y="60.34" width="40" height="30" as="geometry" />
        </mxCell>
        <mxCell id="Oe71tEeRGmfdsAAmsfZn-87" value="" style="endArrow=classic;html=1;rounded=0;entryX=0.5;entryY=0;entryDx=0;entryDy=0;" parent="1" edge="1">
          <mxGeometry width="50" height="50" relative="1" as="geometry">
            <mxPoint x="575.44" y="90" as="sourcePoint" />
            <mxPoint x="575.44" y="168" as="targetPoint" />
          </mxGeometry>
        </mxCell>
        <mxCell id="Oe71tEeRGmfdsAAmsfZn-88" value="meeting &lt;br style=&quot;font-size: 6px;&quot;&gt;vincent" style="text;html=1;align=center;verticalAlign=middle;resizable=0;points=[];autosize=1;strokeColor=none;fillColor=none;fontSize=6;" parent="1" vertex="1">
          <mxGeometry x="555.51" y="60.34" width="40" height="30" as="geometry" />
        </mxCell>
      </root>
    </mxGraphModel>
  </diagram>
</mxfile>
